<svg width="24" height="25" viewBox="0 0 24 25" fill="none" xmlns="http://www.w3.org/2000/svg">
<path d="M16.9998 3.60449H20.9998C21.265 3.60449 21.5193 3.70985 21.7069 3.89739C21.8944 4.08492 21.9998 4.33928 21.9998 4.60449V20.6045C21.9998 20.8697 21.8944 21.1241 21.7069 21.3116C21.5193 21.4991 21.265 21.6045 20.9998 21.6045H2.99976C2.73454 21.6045 2.48019 21.4991 2.29265 21.3116C2.10511 21.1241 1.99976 20.8697 1.99976 20.6045V4.60449C1.99976 4.33928 2.10511 4.08492 2.29265 3.89739C2.48019 3.70985 2.73454 3.60449 2.99976 3.60449H6.99976V1.60449H8.99976V3.60449H14.9998V1.60449H16.9998V3.60449ZM3.99976 9.60449V19.6045H19.9998V9.60449H3.99976ZM5.99976 11.6045H7.99976V13.6045H5.99976V11.6045ZM10.9998 11.6045H12.9998V13.6045H10.9998V11.6045ZM15.9998 11.6045H17.9998V13.6045H15.9998V11.6045Z" fill="#0C0A09"/>
</svg>
